<svg width="1798" height="1284" viewBox="0 0 1798 1284" fill="none" xmlns="http://www.w3.org/2000/svg">
<path d="M19.7233 825.048C5.47379 817.202 0.723955 834.26 0.130226 843.77C-2.54155 895.48 36.6446 938.274 49.1129 947.19C61.5812 956.105 158.656 1053.28 367.945 1004.25C577.235 955.214 701.027 738.567 759.806 661.894C818.586 585.221 967.315 299.035 1126.73 182.242C1286.15 65.449 1422.41 79.7138 1467.83 81.4969C1507.88 83.0694 1530.17 92.1954 1565.79 95.7616C1599.12 99.098 1566.09 72.8786 1545.31 61.8828C1516.67 46.7265 1500.78 39.5946 1471.39 28.8961C1459.24 24.4713 1378.77 -10.3324 1215.79 3.041C1115.84 11.2424 1027.43 62.5832 1006.55 74.7109L1005.61 75.2562C910.317 130.532 829.166 231.47 808.789 257.132C781.181 291.902 717.948 385.812 679.653 447.031C670.153 462.782 604.51 565.375 554.97 636.931C492.628 726.977 410.17 795.443 356.368 822.373C301.151 850.011 257.512 858.035 196.951 860.709C147.095 862.911 90.0802 849.119 83.846 848.228C77.6119 847.336 37.5351 834.855 19.7233 825.048Z" fill="url(#paint0_linear_89_81)"/>
<path d="M1775.06 514.188C1789.32 522.029 1800.91 474.986 1797.35 450.929C1800.02 399.253 1743.86 346.791 1731.37 337.882C1718.89 328.972 1587.84 236.205 1378.33 285.208C1168.82 334.212 1042.79 549.669 987.834 629.123C927.079 716.963 774.757 999.767 615.172 1110.25C475.927 1206.65 358.508 1205.77 324.531 1206.47C281.738 1207.36 255.883 1198.45 220.222 1194.89C186.859 1191.56 219.925 1216.87 240.727 1227.86C269.401 1243 288.87 1250.13 318.291 1259.93C336.29 1265.93 418.143 1290.82 523.344 1282.21C624.979 1273.88 713.803 1229.98 732.855 1218.95C828.249 1163.71 910.378 1069.96 930.776 1044.32C958.413 1009.57 1027.95 908.591 1066.29 847.411C1075.8 831.671 1140.62 729.145 1190.21 657.635C1252.62 567.647 1324.47 499.225 1378.33 472.313C1433.6 444.693 1478.18 434.001 1542.37 434.001C1592.33 434.001 1646.55 446.999 1673.43 459.839C1713.53 478.999 1757.23 504.388 1775.06 514.188Z" fill="url(#paint1_linear_89_81)"/>
<defs>
<linearGradient id="paint0_linear_89_81" x1="1287.93" y1="315.083" x2="56.5312" y2="980.856" gradientUnits="userSpaceOnUse">
<stop stop-color="#8979FF"/>
<stop offset="1" stop-color="#A631FF"/>
</linearGradient>
<linearGradient id="paint1_linear_89_81" x1="341.471" y1="1511.18" x2="1797.66" y2="521.349" gradientUnits="userSpaceOnUse">
<stop stop-color="#8979FF"/>
<stop offset="1" stop-color="#9100FF" stop-opacity="0.6"/>
</linearGradient>
</defs>
</svg>
